<?xml version="1.0" encoding="UTF-8"?> <svg xmlns="http://www.w3.org/2000/svg" viewBox="0 0 777 132.69"><defs><style>.cls-1{fill:#e52c2d;}.cls-2{fill:#3564ab;}.cls-3{fill:#f7b62f;}.cls-4{fill:#39a749;}.cls-5{fill:#fff;}</style></defs><title>Savremena Gimnazija i Osnovna Logo</title><g id="Layer_2" data-name="Layer 2"><g id="Layer_1-2" data-name="Layer 1"><g id="Savremena_Gimnazija_i_Osnovna_Logo" data-name="Savremena Gimnazija i Osnovna Logo"><path class="cls-1" d="M282.59,43.66a19.37,19.37,0,0,0-4.43-2.74c-1.69-.76-3.44-1.51-5.27-2.23s-3.34-1.4-4.71-2a17.82,17.82,0,0,1-3.48-2,7.48,7.48,0,0,1-2.15-2.44,6.88,6.88,0,0,1-.73-3.3,6.15,6.15,0,0,1,.82-3.25,6.9,6.9,0,0,1,2.2-2.2A10.19,10.19,0,0,1,268,22.24a17.07,17.07,0,0,1,3.79-.41,24.61,24.61,0,0,1,7.64.91,35.65,35.65,0,0,1,3.71,1.47l1.37-5.31a26.08,26.08,0,0,0-4.43-1.46,32.49,32.49,0,0,0-8-.82q-7.59,0-11.95,3.56a11.52,11.52,0,0,0-4.34,9.34,11,11,0,0,0,1.1,5.12,11.41,11.41,0,0,0,2.93,3.62A20.4,20.4,0,0,0,264,40.91c1.58.77,3.26,1.51,5,2.24,2.2.92,4,1.71,5.54,2.38a17.12,17.12,0,0,1,3.61,2.11,6.52,6.52,0,0,1,2,2.47,8.16,8.16,0,0,1,.59,3.29,5.9,5.9,0,0,1-3.34,5.72,18.65,18.65,0,0,1-8.46,1.7,30.45,30.45,0,0,1-5-.37,26.77,26.77,0,0,1-3.7-.87,24.65,24.65,0,0,1-2.48-.92,9.33,9.33,0,0,1-1.18-.59l-1.56,5.4a36.19,36.19,0,0,0,4.39,1.6A33.08,33.08,0,0,0,269,66.12q8.32,0,13.13-3.29t4.8-9.7a11.86,11.86,0,0,0-1.19-5.63,12.74,12.74,0,0,0-3.11-3.84"></path><path class="cls-1" d="M335.12,21.6a13.72,13.72,0,0,0-5.26-3.66A21,21,0,0,0,322,16.62a40.81,40.81,0,0,0-7.83.64,21.63,21.63,0,0,0-4.81,1.37l.83,5.21c.79-.3,2-.7,3.75-1.18a30.35,30.35,0,0,1,7.78-.74,12.9,12.9,0,0,1,5.9,1.15,8.82,8.82,0,0,1,3.48,3,10.63,10.63,0,0,1,1.6,4.21,31.32,31.32,0,0,1,.37,4.8V38a7.19,7.19,0,0,0-1.33-.41c-.64-.15-1.4-.31-2.29-.46s-1.8-.27-2.75-.37-1.84-.13-2.69-.13a36.11,36.11,0,0,0-8,.82,18.44,18.44,0,0,0-6.32,2.61,12.5,12.5,0,0,0-4.12,4.53,13.91,13.91,0,0,0-1.46,6.59A15.77,15.77,0,0,0,305.43,58a12.28,12.28,0,0,0,3.65,4.57,15.35,15.35,0,0,0,5.49,2.61,27.36,27.36,0,0,0,6.92.82c1.95,0,3.85-.07,5.72-.23s3.55-.35,5.07-.59,2.87-.47,4-.69a26.63,26.63,0,0,0,2.65-.59V34.1a25.26,25.26,0,0,0-.91-7,14.45,14.45,0,0,0-2.93-5.54M333,59.9a42.23,42.23,0,0,1-4.44.6q-2.61.22-6.09.22a23.07,23.07,0,0,1-5.08-.5,10.87,10.87,0,0,1-3.84-1.6,7.22,7.22,0,0,1-2.47-2.93,10.37,10.37,0,0,1-.87-4.48,8.24,8.24,0,0,1,1.28-4.85,9.21,9.21,0,0,1,3.3-2.89,13.26,13.26,0,0,1,4.39-1.37,34.84,34.84,0,0,1,4.58-.32,28.64,28.64,0,0,1,6,.5,19.35,19.35,0,0,1,3.21,1Z"></path><path class="cls-1" d="M389,28.1q-1.6,5.53-3.49,11t-3.9,10.52q-2,5.09-3.94,9-1.94-3.93-3.95-9t-3.9-10.52q-1.89-5.44-3.49-11t-2.71-10.38h-6.32q1.67,6.5,3.69,12.8c1.35,4.22,2.78,8.33,4.29,12.36s3.05,7.9,4.64,11.62,3.2,7.23,4.79,10.52h5.55q2.29-4.94,4.74-10.52t4.7-11.62c1.5-4,2.93-8.14,4.28-12.36s2.57-8.47,3.68-12.8h-5.95q-1.1,4.84-2.71,10.38"></path><path class="cls-1" d="M432.49,16.8a39.45,39.45,0,0,0-9.8,1.05,44.09,44.09,0,0,0-6.31,2.06V65h5.95V23.57a17.63,17.63,0,0,1,3.07-.92,28.31,28.31,0,0,1,6.17-.54,33.58,33.58,0,0,1,5.91.41,12.69,12.69,0,0,1,3,.78l1.19-5.13a17.08,17.08,0,0,0-3.62-.91,31.41,31.41,0,0,0-5.53-.46"></path><path class="cls-1" d="M477.6,16.62a20.19,20.19,0,0,0-7.64,1.5,18.46,18.46,0,0,0-6.59,4.62,24,24,0,0,0-4.67,7.74,30,30,0,0,0-1.78,10.84,36.17,36.17,0,0,0,1.28,9.93,20.27,20.27,0,0,0,4.12,7.83,19,19,0,0,0,7.23,5.12A27.58,27.58,0,0,0,480.16,66a30.41,30.41,0,0,0,8.29-1,24.29,24.29,0,0,0,4.8-1.74l-1.1-5.13A30.83,30.83,0,0,1,488,59.72a25.83,25.83,0,0,1-7.68.91q-8.79,0-12.81-4.67t-4.3-13.35h33.22c.05-.43.1-.89.13-1.38s0-1,0-1.46q0-11.81-5.16-17.48T477.6,16.62m-14.18,21a20.23,20.23,0,0,1,1.24-5.95,15.65,15.65,0,0,1,2.92-5A14.62,14.62,0,0,1,472,23.2a12.51,12.51,0,0,1,5.72-1.28q6,0,9.34,4.12t3.48,11.53Z"></path><path class="cls-1" d="M579.73,22.88a12.2,12.2,0,0,0-5.17-4.48,20.31,20.31,0,0,0-8.74-1.6,25.77,25.77,0,0,0-6,.64A26.13,26.13,0,0,0,555.11,19a25.29,25.29,0,0,0-3.33,1.79c-.89.58-1.49,1-1.79,1.23q-4-5.21-13-5.21a54.1,54.1,0,0,0-11,.91q-4.26.91-6.91,1.65V65h6V23.48a18.36,18.36,0,0,1,3.79-.82,48.21,48.21,0,0,1,7.28-.46,14.21,14.21,0,0,1,6.18,1.14,8.27,8.27,0,0,1,3.61,3.39,14.94,14.94,0,0,1,1.69,5.67,68,68,0,0,1,.41,8.1V65h5.95V38.12a44.83,44.83,0,0,0-.41-6.27,27.88,27.88,0,0,0-1.24-5.35c.31-.25.81-.61,1.52-1.1a17.17,17.17,0,0,1,2.7-1.47,21.54,21.54,0,0,1,3.89-1.23,22.45,22.45,0,0,1,5-.5,13.36,13.36,0,0,1,5.95,1.14,8.06,8.06,0,0,1,3.52,3.39,15.51,15.51,0,0,1,1.65,5.67,70.15,70.15,0,0,1,.41,8.1V65h6V38.58a55.84,55.84,0,0,0-.64-8.79,18.17,18.17,0,0,0-2.47-6.91"></path><path class="cls-1" d="M625,16.62a20.19,20.19,0,0,0-7.64,1.5,18.46,18.46,0,0,0-6.59,4.62,24,24,0,0,0-4.67,7.74,30,30,0,0,0-1.78,10.84,36.17,36.17,0,0,0,1.28,9.93,20.27,20.27,0,0,0,4.12,7.83A19.08,19.08,0,0,0,617,64.2,27.64,27.64,0,0,0,627.59,66a30.38,30.38,0,0,0,8.28-1,24.72,24.72,0,0,0,4.81-1.74l-1.1-5.13a32,32,0,0,1-4.12,1.56,25.87,25.87,0,0,1-7.68.91Q619,60.63,615,56t-4.3-13.35h33.22c.06-.43.11-.89.13-1.38s.06-1,.06-1.46q0-11.81-5.18-17.48T625,16.62m-14.19,21a20.89,20.89,0,0,1,1.24-5.95,15.86,15.86,0,0,1,2.93-5,14.5,14.5,0,0,1,4.39-3.44,12.48,12.48,0,0,1,5.72-1.28q6,0,9.34,4.12t3.48,11.53Z"></path><path class="cls-1" d="M699.38,22.79a13.75,13.75,0,0,0-5.76-4.43,22.83,22.83,0,0,0-9-1.56,56,56,0,0,0-11,.91q-4.49.91-7.14,1.65V65h5.95V23.48a21.44,21.44,0,0,1,4-.82,49.18,49.18,0,0,1,7.27-.46,19.13,19.13,0,0,1,6.54,1,8.91,8.91,0,0,1,4.21,3.15A14.25,14.25,0,0,1,696.73,32a45.54,45.54,0,0,1,.68,8.51V65h6V38.58a40.17,40.17,0,0,0-.92-8.88,18,18,0,0,0-3.07-6.91"></path><path class="cls-1" d="M758.18,27.14a14.45,14.45,0,0,0-2.93-5.54A13.72,13.72,0,0,0,750,17.94a21.1,21.1,0,0,0-7.92-1.32,40.77,40.77,0,0,0-7.82.64,21.63,21.63,0,0,0-4.81,1.37l.83,5.21c.79-.3,2-.7,3.75-1.18a30.35,30.35,0,0,1,7.78-.74,12.93,12.93,0,0,1,5.9,1.15,9,9,0,0,1,3.48,3,10.49,10.49,0,0,1,1.6,4.21,31.32,31.32,0,0,1,.37,4.8V38a7.19,7.19,0,0,0-1.33-.41c-.64-.15-1.41-.31-2.29-.46s-1.8-.27-2.74-.37-1.85-.13-2.7-.13a36.33,36.33,0,0,0-8,.82,18.47,18.47,0,0,0-6.31,2.61,12.5,12.5,0,0,0-4.12,4.53,13.79,13.79,0,0,0-1.46,6.59A15.92,15.92,0,0,0,725.55,58a12.33,12.33,0,0,0,3.67,4.57,15.27,15.27,0,0,0,5.49,2.61,27.2,27.2,0,0,0,6.9.82c2,0,3.86-.07,5.73-.23s3.55-.35,5.07-.59,2.87-.47,4-.69a26.63,26.63,0,0,0,2.65-.59V34.1a25.26,25.26,0,0,0-.91-7m-5,32.76a42.23,42.23,0,0,1-4.44.6q-2.61.22-6.09.22a22.92,22.92,0,0,1-5.07-.5,10.84,10.84,0,0,1-3.85-1.6,7.22,7.22,0,0,1-2.47-2.93,10.37,10.37,0,0,1-.87-4.48,8.31,8.31,0,0,1,1.28-4.85,9.18,9.18,0,0,1,3.29-2.89,13.48,13.48,0,0,1,4.39-1.37,35.07,35.07,0,0,1,4.58-.32,28.75,28.75,0,0,1,6,.5,19.35,19.35,0,0,1,3.21,1Z"></path><rect class="cls-2" x="372.18" y="76.52" width="134.95" height="5.75"></rect><rect class="cls-3" x="237.23" y="76.52" width="134.94" height="5.75"></rect><rect class="cls-1" x="507.12" y="76.52" width="134.94" height="5.75"></rect><rect class="cls-4" x="642.06" y="76.52" width="134.94" height="5.75"></rect><path class="cls-2" d="M189.4,132.69a89.21,89.21,0,0,0,5.94-13.87c-56.51-12-114.23-7.87-172.06.22a88.88,88.88,0,0,0,5.85,13.65Z"></path><path class="cls-3" d="M187.91,45.64A89,89,0,0,0,182,36.7,90.47,90.47,0,0,0,18.73,89.49c0,.37,0,.72,0,1.09A90.14,90.14,0,0,0,20,105.65c36.29-2,72.39-6.31,107.06-15.42,20.11-14.77,44.75-21.34,66.25-33.37a88.89,88.89,0,0,0-5.37-11.22"></path><path class="cls-1" d="M198.41,74.68A91.17,91.17,0,0,0,195.82,64c-.74-2.42-1.61-4.78-2.54-7.12-21.49,12-46.12,18.6-66.22,33.35C92.38,99.34,56.27,103.68,20,105.65A90.32,90.32,0,0,0,23.28,119c57.83-8.09,115.55-12.19,172.06-.23a89.85,89.85,0,0,0,3.07-44.13"></path><path class="cls-4" d="M104.09,116.88c42.93,0,82.55,2.52,114.45,6.77-24.89-8.57-65.42-14.15-111.22-14.15-43.48,0-82.21,5-107.32,12.87,30-3.47,65.68-5.49,104.09-5.49"></path><path class="cls-5" d="M219.63,49.64c3.17-1.5,3.06-3.53,3-4.32-.18-2.23-24,3.9-30.57,5.45-.18,0-1.64.82-1.81.89a218.18,218.18,0,0,1-40,11.14l-.07,0c-11.31,3.74-29.81,21.92-35.12,27.3a11.79,11.79,0,0,1-3.66,2.54c-11.22,4.86-19.51,1.15-19.51,1.15-1.18-.57-2.33-1.11-3.48-1.63C46.35,72.77,24.42,81.73,21.76,83c-1,.48-2.64.64-2.8,1.33-.1.47-.4,1.17-.49,1.62a.41.41,0,0,0,.4.5,23.68,23.68,0,0,0,3.63-.3C45,82.34,68.37,94.74,80.74,102.84a109.17,109.17,0,0,1,9,6.45h0c1.73,1.88,1,5,2.47,6.45,5,5,9.45,7.31,13.06,8.25a13.84,13.84,0,0,0,9.28-.43,1.53,1.53,0,0,0,.66-.65c21.55-41.3,59-52.19,59.16-52.24h0a102,102,0,0,0,21.56-10.31c.19-.12,23.87-10.53,23.75-10.72"></path><path class="cls-4" d="M235.58,110.15a16.47,16.47,0,0,1,1-6,12.37,12.37,0,0,1,2.76-4.35,11.4,11.4,0,0,1,4.06-2.62,13.72,13.72,0,0,1,4.93-.88,13.33,13.33,0,0,1,4.85.88,11.34,11.34,0,0,1,4,2.62,12.62,12.62,0,0,1,2.74,4.35,18.27,18.27,0,0,1,0,12,12.44,12.44,0,0,1-2.74,4.35,11.23,11.23,0,0,1-4,2.63,13.33,13.33,0,0,1-4.85.88,13.72,13.72,0,0,1-4.93-.88,11.29,11.29,0,0,1-4.06-2.63,12.2,12.2,0,0,1-2.76-4.35A16.4,16.4,0,0,1,235.58,110.15Zm3.91,0a14.7,14.7,0,0,0,.61,4.39,9.74,9.74,0,0,0,1.75,3.36,7.6,7.6,0,0,0,2.76,2.13,8.76,8.76,0,0,0,3.66.74,8.67,8.67,0,0,0,3.64-.74,7.7,7.7,0,0,0,2.74-2.13,9.74,9.74,0,0,0,1.75-3.36,16.1,16.1,0,0,0,0-8.78,9.78,9.78,0,0,0-1.75-3.35,7.7,7.7,0,0,0-2.74-2.13,8.52,8.52,0,0,0-3.64-.75,8.61,8.61,0,0,0-3.66.75,7.6,7.6,0,0,0-2.76,2.13,9.78,9.78,0,0,0-1.75,3.35A14.74,14.74,0,0,0,239.49,110.15Z"></path><path class="cls-4" d="M272.27,120.81c3.88,0,5.83-1.33,5.83-4a4,4,0,0,0-.52-2.08,5,5,0,0,0-1.4-1.5,9.62,9.62,0,0,0-2-1.09c-.76-.31-1.56-.62-2.4-.92A24.48,24.48,0,0,1,269,110.1a9.76,9.76,0,0,1-2.26-1.5,6.45,6.45,0,0,1-1.52-2,6.76,6.76,0,0,1-.55-2.88,6.64,6.64,0,0,1,2.38-5.44,10,10,0,0,1,6.55-2,17.58,17.58,0,0,1,4.39.51,10.55,10.55,0,0,1,2.9,1.13l-1.19,3a10.77,10.77,0,0,0-2.4-1,12.83,12.83,0,0,0-3.7-.48,7.82,7.82,0,0,0-2,.23,4.9,4.9,0,0,0-1.61.69,3.33,3.33,0,0,0-1.1,1.17,3.37,3.37,0,0,0-.4,1.66,3.53,3.53,0,0,0,.42,1.8,4.14,4.14,0,0,0,1.19,1.29,9.75,9.75,0,0,0,1.79,1c.67.31,1.42.62,2.24.93,1.15.46,2.2.92,3.16,1.38a10.44,10.44,0,0,1,2.49,1.64,6.57,6.57,0,0,1,1.63,2.29,7.86,7.86,0,0,1,.58,3.2,6.26,6.26,0,0,1-2.55,5.36c-1.7,1.26-4.1,1.88-7.19,1.88a18.64,18.64,0,0,1-2.9-.21,19.55,19.55,0,0,1-2.35-.5,13.25,13.25,0,0,1-1.79-.61c-.49-.22-.88-.4-1.17-.56l1.12-3.06a16.79,16.79,0,0,0,2.68,1.11A13.76,13.76,0,0,0,272.27,120.81Z"></path><path class="cls-4" d="M304.7,123.46c-.56-.95-1.21-2-1.93-3.19s-1.52-2.39-2.36-3.66-1.72-2.55-2.63-3.85-1.81-2.56-2.7-3.78-1.76-2.35-2.61-3.43-1.62-2-2.34-2.83v20.74h-3.64V96.89h2.95q1.8,1.92,3.86,4.47c1.36,1.7,2.72,3.45,4.06,5.25s2.61,3.57,3.8,5.31,2.19,3.28,3,4.64V96.89h3.64v26.57Z"></path><path class="cls-4" d="M313.33,110.15a16.69,16.69,0,0,1,1-6,12.54,12.54,0,0,1,2.77-4.35,11.4,11.4,0,0,1,4.06-2.62,13.72,13.72,0,0,1,4.93-.88,13.33,13.33,0,0,1,4.85.88,11.43,11.43,0,0,1,4,2.62,12.77,12.77,0,0,1,2.74,4.35,18.27,18.27,0,0,1,0,12,12.58,12.58,0,0,1-2.74,4.35,11.32,11.32,0,0,1-4,2.63,13.33,13.33,0,0,1-4.85.88,13.72,13.72,0,0,1-4.93-.88,11.29,11.29,0,0,1-4.06-2.63,12.35,12.35,0,0,1-2.77-4.35A16.62,16.62,0,0,1,313.33,110.15Zm3.91,0a14.7,14.7,0,0,0,.61,4.39,9.74,9.74,0,0,0,1.75,3.36,7.6,7.6,0,0,0,2.76,2.13,8.76,8.76,0,0,0,3.66.74,8.67,8.67,0,0,0,3.64-.74,7.7,7.7,0,0,0,2.74-2.13,9.74,9.74,0,0,0,1.75-3.36,16.1,16.1,0,0,0,0-8.78,9.78,9.78,0,0,0-1.75-3.35,7.7,7.7,0,0,0-2.74-2.13,8.52,8.52,0,0,0-3.64-.75,8.61,8.61,0,0,0-3.66.75,7.6,7.6,0,0,0-2.76,2.13,9.78,9.78,0,0,0-1.75,3.35A14.74,14.74,0,0,0,317.24,110.15Z"></path><path class="cls-4" d="M365.05,96.89c-1,2.81-1.9,5.41-2.78,7.8s-1.75,4.66-2.59,6.81-1.68,4.19-2.51,6.15-1.68,3.89-2.55,5.81h-3.49q-1.31-2.88-2.55-5.81t-2.53-6.15c-.86-2.15-1.73-4.42-2.63-6.81s-1.81-5-2.76-7.8h4.11q2.07,6.06,4.06,11.65t4.1,10.51q2.11-4.87,4.1-10.49t4-11.67Z"></path><path class="cls-4" d="M386.94,123.46c-.56-.95-1.21-2-1.94-3.19s-1.51-2.39-2.36-3.66-1.72-2.55-2.62-3.85-1.81-2.56-2.7-3.78-1.77-2.35-2.61-3.43-1.63-2-2.34-2.83v20.74h-3.64V96.89h2.95q1.8,1.92,3.85,4.47c1.37,1.7,2.72,3.45,4.07,5.25s2.6,3.57,3.79,5.31,2.19,3.28,3,4.64V96.89H390v26.57Z"></path><path class="cls-4" d="M414.39,123.46c-.44-1.15-.85-2.28-1.23-3.4s-.78-2.24-1.19-3.39h-12l-2.41,6.79h-3.87q1.53-4.21,2.87-7.8c.9-2.39,1.77-4.66,2.63-6.81s1.7-4.2,2.55-6.15,1.72-3.89,2.64-5.81h3.41c.92,1.92,1.81,3.85,2.65,5.81s1.69,4,2.55,6.15,1.73,4.42,2.62,6.81,1.86,5,2.88,7.8Zm-3.49-9.86q-1.23-3.33-2.44-6.46t-2.51-6q-1.33,2.88-2.55,6T401,113.6Z"></path><path class="cls-4" d="M437.08,120.81q5.84,0,5.83-4a3.92,3.92,0,0,0-.52-2.08,4.86,4.86,0,0,0-1.4-1.5,9.62,9.62,0,0,0-2-1.09c-.75-.31-1.55-.62-2.4-.92a24.48,24.48,0,0,1-2.76-1.13,9.76,9.76,0,0,1-2.26-1.5,6.28,6.28,0,0,1-1.51-2,6.75,6.75,0,0,1-.56-2.88,6.64,6.64,0,0,1,2.38-5.44,10,10,0,0,1,6.55-2,17.52,17.52,0,0,1,4.39.51,10.41,10.41,0,0,1,2.9,1.13l-1.19,3a10.77,10.77,0,0,0-2.4-1,12.83,12.83,0,0,0-3.7-.48,7.87,7.87,0,0,0-2,.23,5,5,0,0,0-1.61.69,3.31,3.31,0,0,0-1.09,1.17,3.27,3.27,0,0,0-.4,1.66,3.53,3.53,0,0,0,.42,1.8,4.11,4.11,0,0,0,1.18,1.29,10.1,10.1,0,0,0,1.79,1c.67.31,1.42.62,2.24.93,1.15.46,2.2.92,3.16,1.38a10.71,10.71,0,0,1,2.5,1.64,6.7,6.7,0,0,1,1.63,2.29,8,8,0,0,1,.57,3.2,6.26,6.26,0,0,1-2.55,5.36c-1.7,1.26-4.1,1.88-7.19,1.88a18.42,18.42,0,0,1-2.89-.21,19.74,19.74,0,0,1-2.36-.5,13.07,13.07,0,0,1-1.78-.61c-.5-.22-.89-.4-1.17-.56l1.11-3.06a17.2,17.2,0,0,0,2.68,1.11A13.76,13.76,0,0,0,437.08,120.81ZM433,89.53l1.49-1.69,3.72,3.38,3.72-3.38,1.5,1.69L438.19,95Z"></path><path class="cls-4" d="M471,96.89c-.79.87-1.68,1.83-2.68,2.89s-2,2.15-3.13,3.26-2.16,2.21-3.23,3.28l-3,3a35.28,35.28,0,0,1,3.49,2.84q1.83,1.68,3.6,3.6t3.32,3.91a33.72,33.72,0,0,1,2.58,3.8h-4.37a38.55,38.55,0,0,0-2.64-3.63c-1-1.21-2.05-2.37-3.17-3.48s-2.23-2.14-3.37-3.09a30.32,30.32,0,0,0-3.31-2.42v12.62h-3.72V96.89H455v11.73c.89-.84,1.87-1.79,3-2.86s2.13-2.12,3.18-3.2,2-2.1,3-3.08,1.72-1.85,2.36-2.59Z"></path><path class="cls-4" d="M473,110.15a16.47,16.47,0,0,1,1-6,12.66,12.66,0,0,1,2.76-4.35,11.44,11.44,0,0,1,4.07-2.62,13.63,13.63,0,0,1,4.92-.88,13.29,13.29,0,0,1,4.85.88,11.38,11.38,0,0,1,4,2.62,12.77,12.77,0,0,1,2.74,4.35,18.45,18.45,0,0,1,0,12,12.58,12.58,0,0,1-2.74,4.35,11.27,11.27,0,0,1-4,2.63,13.29,13.29,0,0,1-4.85.88,13.63,13.63,0,0,1-4.92-.88,11.33,11.33,0,0,1-4.07-2.63,12.48,12.48,0,0,1-2.76-4.35A16.4,16.4,0,0,1,473,110.15Zm3.92,0a14.7,14.7,0,0,0,.61,4.39,9.9,9.9,0,0,0,1.74,3.36A7.77,7.77,0,0,0,482,120a8.83,8.83,0,0,0,3.66.74,8.72,8.72,0,0,0,3.65-.74,7.79,7.79,0,0,0,2.74-2.13,9.9,9.9,0,0,0,1.74-3.36,15.85,15.85,0,0,0,0-8.78,9.94,9.94,0,0,0-1.74-3.35,7.79,7.79,0,0,0-2.74-2.13,8.57,8.57,0,0,0-3.65-.75,8.68,8.68,0,0,0-3.66.75,7.77,7.77,0,0,0-2.76,2.13,9.94,9.94,0,0,0-1.74,3.35A14.74,14.74,0,0,0,476.92,110.15Z"></path><path class="cls-4" d="M519.89,120.24v3.22h-16V96.89h3.72v23.35Z"></path><path class="cls-4" d="M542.63,123.46c-.44-1.15-.85-2.28-1.23-3.4s-.78-2.24-1.19-3.39h-12l-2.41,6.79h-3.87q1.53-4.21,2.87-7.8c.9-2.39,1.77-4.66,2.63-6.81s1.7-4.2,2.55-6.15,1.72-3.89,2.64-5.81H536c.92,1.92,1.81,3.85,2.65,5.81s1.69,4,2.55,6.15,1.73,4.42,2.63,6.81,1.85,5,2.87,7.8Zm-3.49-9.86q-1.23-3.33-2.44-6.46t-2.51-6q-1.34,2.88-2.55,6t-2.39,6.46Z"></path><path class="cls-4" d="M559.15,96.89h3.72v26.57h-3.72Z"></path><path class="cls-4" d="M594.53,110.38h3.72v12.43c-.3.1-.74.21-1.32.34s-1.24.26-2,.38-1.58.24-2.47.33-1.81.13-2.73.13a13.54,13.54,0,0,1-5.1-.92,10.78,10.78,0,0,1-3.95-2.68,12.28,12.28,0,0,1-2.54-4.33,17.81,17.81,0,0,1-.91-5.91,16.08,16.08,0,0,1,1-5.92A12.87,12.87,0,0,1,581,99.88a11.42,11.42,0,0,1,4-2.68,13.17,13.17,0,0,1,5-.92,19.14,19.14,0,0,1,3.2.23,18.72,18.72,0,0,1,2.4.53,11.79,11.79,0,0,1,1.63.62,6.31,6.31,0,0,1,.86.46l-1.19,3.1A10.12,10.12,0,0,0,594,100a14.85,14.85,0,0,0-3.76-.48,9.25,9.25,0,0,0-3.7.73,7.77,7.77,0,0,0-2.83,2.11,9.85,9.85,0,0,0-1.82,3.36,13.87,13.87,0,0,0-.66,4.42,15.9,15.9,0,0,0,.56,4.34,9.2,9.2,0,0,0,1.69,3.35,7.64,7.64,0,0,0,2.79,2.17,9.41,9.41,0,0,0,3.93.76,17.81,17.81,0,0,0,2.74-.17,10.43,10.43,0,0,0,1.63-.33Z"></path><path class="cls-4" d="M604.08,96.89h3.72v26.57h-3.72Z"></path><path class="cls-4" d="M626.32,119.78q-.39-.93-1-2.34c-.42-1-.88-2-1.36-3.07s-1-2.23-1.55-3.39l-1.56-3.3c-.48-1-.94-2-1.36-2.78s-.76-1.44-1-1.88c-.28,3-.51,6.28-.69,9.8s-.34,7.06-.46,10.64h-3.65c.11-2.3.22-4.62.35-7s.27-4.64.44-6.9.35-4.47.54-6.61.4-4.18.63-6.1h3.26q1,1.68,2.22,4c.79,1.53,1.59,3.13,2.38,4.81s1.56,3.35,2.3,5l2,4.58,2-4.58c.74-1.67,1.51-3.35,2.3-5s1.59-3.28,2.38-4.81,1.53-2.87,2.22-4H640q1.31,12.84,2,26.57h-3.64c-.13-3.58-.29-7.13-.46-10.64s-.41-6.78-.69-9.8c-.26.44-.6,1.06-1,1.88s-.88,1.75-1.36,2.78-1,2.14-1.55,3.3-1.07,2.29-1.56,3.39-.94,2.12-1.36,3.07-.76,1.72-1,2.34Z"></path><path class="cls-4" d="M666,123.46c-.57-.95-1.21-2-1.94-3.19s-1.51-2.39-2.36-3.66-1.72-2.55-2.62-3.85-1.81-2.56-2.71-3.78-1.76-2.35-2.6-3.43-1.63-2-2.34-2.83v20.74h-3.64V96.89h3q1.8,1.92,3.85,4.47t4.06,5.25c1.35,1.8,2.61,3.57,3.8,5.31s2.19,3.28,3,4.64V96.89h3.64v26.57Z"></path><path class="cls-4" d="M693.45,123.46c-.44-1.15-.85-2.28-1.23-3.4s-.78-2.24-1.19-3.39H679l-2.41,6.79h-3.87q1.53-4.21,2.87-7.8t2.63-6.81q1.27-3.22,2.54-6.15c.85-2,1.73-3.89,2.65-5.81h3.41c.92,1.92,1.81,3.85,2.65,5.81s1.69,4,2.55,6.15,1.73,4.42,2.62,6.81,1.86,5,2.88,7.8ZM690,113.6q-1.23-3.33-2.44-6.46t-2.51-6q-1.34,2.88-2.55,6t-2.39,6.46Z"></path><path class="cls-4" d="M718.71,99.84c-.59.67-1.27,1.46-2.05,2.4s-1.6,2-2.47,3.1-1.77,2.34-2.69,3.61-1.82,2.54-2.7,3.83-1.72,2.58-2.51,3.85-1.51,2.5-2.15,3.64h15v3.19H699.81V121c.54-1,1.17-2.15,1.9-3.38s1.51-2.48,2.34-3.76,1.69-2.56,2.58-3.87,1.79-2.55,2.67-3.75,1.74-2.33,2.57-3.38,1.59-2,2.28-2.76H700.5V96.89h18.21Z"></path><path class="cls-4" d="M723.81,96.89h3.72v26.57h-3.72Z"></path><path class="cls-4" d="M746.89,114.91a15.4,15.4,0,0,1-.4,3.56,7.36,7.36,0,0,1-1.42,2.9,6.83,6.83,0,0,1-2.72,1.95,11.1,11.1,0,0,1-4.28.71,12.76,12.76,0,0,1-2.4-.21,12.47,12.47,0,0,1-2-.54,9.17,9.17,0,0,1-1.53-.69,5.65,5.65,0,0,1-1-.7l1.46-3a13.85,13.85,0,0,0,2.09,1.21,7.21,7.21,0,0,0,3.2.63,5.14,5.14,0,0,0,4-1.4q1.27-1.4,1.27-4.81V96.89h3.72Z"></path><path class="cls-4" d="M770.66,123.46c-.44-1.15-.85-2.28-1.23-3.4s-.78-2.24-1.19-3.39h-12l-2.41,6.79h-3.87q1.53-4.21,2.87-7.8c.9-2.39,1.77-4.66,2.63-6.81s1.7-4.2,2.55-6.15,1.72-3.89,2.64-5.81H764c.92,1.92,1.81,3.85,2.65,5.81s1.69,4,2.55,6.15,1.73,4.42,2.63,6.81,1.85,5,2.87,7.8Zm-3.49-9.86q-1.23-3.33-2.44-6.46t-2.51-6q-1.34,2.88-2.55,6t-2.39,6.46Z"></path></g></g></g></svg> 